<?xml version="1.0" encoding="UTF-8" standalone="no"?>
<!DOCTYPE svg PUBLIC "-//W3C//DTD SVG 1.1//EN" "http://www.w3.org/Graphics/SVG/1.1/DTD/svg11.dtd">
<svg width="100%" height="100%" viewBox="0 0 32 32" version="1.1" xmlns="http://www.w3.org/2000/svg" xmlns:xlink="http://www.w3.org/1999/xlink" xml:space="preserve" xmlns:serif="http://www.serif.com/" style="fill-rule:evenodd;clip-rule:evenodd;stroke-linejoin:round;stroke-miterlimit:2;">
    <g transform="matrix(2,0,0,2,0,0)">
        <g transform="matrix(0.719416,0,0,0.613539,-4.63043,-0.898596)">
            <rect x="17.904" y="4.317" width="8.34" height="9.779" style="fill:white;"/>
        </g>
        <g transform="matrix(0.719416,0,0,0.613539,-11.1304,5.6014)">
            <rect x="17.904" y="4.317" width="8.34" height="9.779" style="fill:white;"/>
        </g>
        <g transform="matrix(0.719416,0,0,0.613539,-11.1304,-0.898596)">
            <rect x="17.904" y="4.317" width="8.34" height="9.779" style="fill:white;"/>
        </g>
        <g transform="matrix(0.5,0,0,0.5,5.32907e-15,6.5)">
            <path d="M28.5,3.5L16.5,3.5L16.5,15.5L28.5,15.5L28.5,3.5ZM26.413,5.587L26.413,13.413C26.413,13.413 18.587,13.413 18.587,13.413C18.587,13.413 18.587,5.587 18.587,5.587L26.413,5.587Z" style="fill:white;"/>
        </g>
    </g>
</svg>
