<?xml version="1.0" encoding="UTF-8" standalone="no"?>
<!DOCTYPE svg PUBLIC "-//W3C//DTD SVG 1.1//EN" "http://www.w3.org/Graphics/SVG/1.1/DTD/svg11.dtd">
<svg width="100%" height="100%" viewBox="0 0 32 32" version="1.1" xmlns="http://www.w3.org/2000/svg" xmlns:xlink="http://www.w3.org/1999/xlink" xml:space="preserve" xmlns:serif="http://www.serif.com/" style="fill-rule:evenodd;clip-rule:evenodd;stroke-linejoin:round;stroke-miterlimit:2;">
    <g transform="matrix(2,0,0,2,0,0)">
        <g transform="matrix(-0.199629,0.199629,-0.230866,-0.230866,15.649,10.3533)">
            <path d="M9.419,11.313L9.419,14.215L4.258,9.751L9.419,5.288L9.419,8.189L20.464,8.189L20.464,11.313L9.419,11.313Z" style="fill:white;"/>
        </g>
        <g transform="matrix(0.199629,-0.199629,0.230866,0.230866,0.350961,5.64667)">
            <path d="M9.419,11.313L9.419,14.215L4.258,9.751L9.419,5.288L9.419,8.189L20.464,8.189L20.464,11.313L9.419,11.313Z" style="fill:white;"/>
        </g>
        <g transform="matrix(0.5,0,0,0.5,0,0)">
            <rect x="16.5" y="3.5" width="12" height="12" style="fill:white;"/>
        </g>
        <g transform="matrix(0.5,0,0,0.5,-6.5,6.5)">
            <path d="M28.5,3.5L16.5,3.5L16.5,15.5L28.5,15.5L28.5,3.5ZM26.413,5.587L26.413,13.413C26.413,13.413 18.587,13.413 18.587,13.413C18.587,13.413 18.587,5.587 18.587,5.587L26.413,5.587Z" style="fill:white;"/>
        </g>
    </g>
</svg>
