<?xml version="1.0" encoding="UTF-8" standalone="no"?>
<!DOCTYPE svg PUBLIC "-//W3C//DTD SVG 1.1//EN" "http://www.w3.org/Graphics/SVG/1.1/DTD/svg11.dtd">
<svg width="100%" height="100%" viewBox="0 0 16 16" version="1.1" xmlns="http://www.w3.org/2000/svg" xmlns:xlink="http://www.w3.org/1999/xlink" xml:space="preserve" xmlns:serif="http://www.serif.com/" style="fill-rule:evenodd;clip-rule:evenodd;stroke-linejoin:round;stroke-miterlimit:2;">
    <g transform="matrix(3.14327,0,0,2.99359,-15.9077,-8.94872)">
        <rect x="5.379" y="3.323" width="4.454" height="4.677" style="fill:rgb(76,0,188);"/>
        <path d="M9.833,3.323L5.379,3.323L5.379,8L9.833,8L9.833,3.323ZM9.7,3.463L9.7,7.861C9.7,7.861 5.512,7.861 5.512,7.861C5.512,7.861 5.512,3.463 5.512,3.463L9.7,3.463Z"/>
    </g>
    <g transform="matrix(2.43229,0,0,2.47652,-9,-7.2303)">
        <path d="M8.178,5.267C8.178,5.744 7.982,6.094 7.589,6.316C7.295,6.481 7.135,6.648 7.109,6.816C7.103,6.86 7.099,6.905 7.095,6.949C7.081,6.989 7.046,7.009 6.989,7.009C6.792,7.009 6.651,7.021 6.565,7.044C6.547,7.049 6.534,7.052 6.524,7.052C6.454,7.052 6.418,6.958 6.418,6.77C6.418,6.607 6.515,6.406 6.707,6.165C6.899,5.925 6.995,5.723 6.995,5.56C6.995,5.313 6.861,5.189 6.594,5.189C6.424,5.189 6.204,5.254 5.932,5.384C5.849,5.384 5.807,5.14 5.807,4.651C5.807,4.598 5.809,4.557 5.815,4.531C5.843,4.402 6.006,4.302 6.304,4.231C6.521,4.18 6.73,4.154 6.931,4.154C7.284,4.154 7.577,4.251 7.809,4.444C8.055,4.649 8.178,4.923 8.178,5.267ZM7.385,7.739C7.385,7.887 7.332,8.014 7.228,8.122C7.123,8.229 6.996,8.283 6.846,8.283C6.696,8.283 6.568,8.229 6.464,8.122C6.359,8.014 6.307,7.887 6.307,7.739C6.307,7.592 6.359,7.466 6.464,7.361C6.568,7.257 6.696,7.205 6.846,7.205C6.996,7.205 7.123,7.257 7.228,7.361C7.332,7.466 7.385,7.592 7.385,7.739Z" style="fill:white;fill-rule:nonzero;"/>
    </g>
</svg>
